<svg xmlns="http://www.w3.org/2000/svg" width="72.851" height="112.545" viewBox="0 0 19.275 29.777"><path d="M214.184 162.236c2.518-5.123 3.29-11.334.533-16.517-2.07-4.177-4.85-7.798-7.415-11.67-4.07-5.266-7.264-11.836-5.81-18.527.764-4.845 3.717-9.023 6.023-13.257 2.258-3.72 4.484-7.759 5.546-12.05 1.134-5.885-.644-14.509-4.693-19.127l12.096.005c2.861 4.494 6.141 9.345 5.593 14.857.466 7.21-4.204 13.332-7.353 19.506-3.75 5.877-6.528 13.344-3.436 20.033 2.882 6.344 7.646 11.689 11.053 17.776 2.864 4.524 3.094 10.16 1.963 15.212-2.125 5.6-5.19 12.689-7.71 18.122l-13.117-.017c1.655-5 4.44-9.593 6.727-14.346" style="fill:#000" transform="translate(-51.048 -20.063)scale(.28222)"/><path d="M193.926 162.236c2.519-5.123 3.291-11.334.533-16.517-2.07-4.177-4.85-7.798-7.415-11.67-4.07-5.266-7.263-11.836-5.81-18.527.765-4.845 3.717-9.023 6.023-13.257 2.259-3.72 4.484-7.759 5.547-12.05 1.133-5.885-.644-14.509-4.694-19.127l12.096.005c2.862 4.494 6.142 9.345 5.593 14.857.466 7.21-4.204 13.332-7.353 19.506-3.75 5.877-6.528 13.344-3.435 20.033 2.882 6.344 7.645 11.689 11.052 17.776 2.864 4.524 3.095 10.16 1.963 15.212-2.125 5.6-5.19 12.689-7.71 18.122l-13.117-.017c1.655-5 4.44-9.593 6.727-14.346M234.441 162.236c2.519-5.123 3.291-11.334.533-16.517-2.069-4.177-4.85-7.798-7.414-11.67-4.071-5.266-7.264-11.836-5.81-18.527.764-4.845 3.717-9.023 6.022-13.257 2.259-3.72 4.484-7.759 5.547-12.05 1.134-5.885-.644-14.509-4.693-19.127l12.095.005c2.862 4.494 6.142 9.345 5.593 14.857.466 7.21-4.204 13.332-7.353 19.506-3.75 5.877-6.528 13.344-3.435 20.033 2.882 6.344 7.645 11.689 11.053 17.776 2.863 4.524 3.094 10.16 1.963 15.212-2.126 5.6-5.191 12.689-7.711 18.122l-13.117-.017c1.655-5 4.44-9.593 6.727-14.346" style="fill:#000" transform="translate(-51.048 -20.063)scale(.28222)"/></svg>